<svg xmlns="http://www.w3.org/2000/svg" width="1780.03" height="1082.14" viewBox="0 0 1780.03 1082.14">
  <g id="logo-kian-color" transform="translate(-455 -457.93)">
    <rect id="Rectangle_1255" data-name="Rectangle 1255" width="165.28" height="545" transform="translate(989.51 986.7)"/>
    <path id="Path_8249" data-name="Path 8249" d="M1682.7,1377.92V1179.18c0-121.35-43.93-200.84-235.36-200.84-59.62,0-132.85,20.91-175.73,34.52l7.32,122.39c64.85-38.71,109.83-48.13,151.67-48.13,24.06,0,101.47,0,101.47,104.61h-50.2c-57.54,0-269.89,1-269.89,183.07,0,99.37,67,165.27,168.41,165.27,78.46,0,142.27-50.21,149.59-83.69h2.09l4.19,75.32H1686.9C1683.75,1495.09,1682.7,1458.48,1682.7,1377.92Zm-150.63-77.39c0,132.84-83.68,134.93-98.32,134.93-13.61,0-71.14,0-71.14-71.13,0-91,103.56-95.19,169.46-95.19Z"/>
    <path id="Path_8250" data-name="Path 8250" d="M2069.75,1531.7H2235V1175c0-108.8-39.75-196.66-160.05-196.66-86.82,0-128.67,39.75-153.77,99.37h-2.09c0-36.62-2.1-67-4.19-91H1764.29c3.14,28.25,4.2,61.71,4.2,114v431h165.26V1226.25c0-70.09,18.84-116.11,72.19-116.11,33.47,0,63.81,17.79,63.81,85.78Z"/>
    <path id="Path_8251" data-name="Path 8251" d="M455,1531.7H620.26v-262c59.82,2.61,124.28,17.14,124.28,94.63V1531.7H909.82V1374.8c0-103.29-68.39-148.29-138.06-167.91L932,986.7H760.43l-138.08,205h-2.09V747.15H455Z"/>
    <path id="Path_8252" data-name="Path 8252" d="M867.65,508.39,989.5,630.25V457.93h165.32V630.25l121.84-121.86,116.89,116.9L1271.69,747.15h172.34V912.46H1154.79l.01-165.31H989.51l.01,165.31H700.28V747.15H872.63L750.76,625.29Z" fill="#e30613"/>
    <path id="Path_8253" data-name="Path 8253" d="M2161.41,851.6h12.27q8.81,0,12-2.6a8.88,8.88,0,0,0,1.66-11.85,9.1,9.1,0,0,0-4.27-3.27c-1.84-.71-5.21-1.08-10.16-1.08H2161.4Zm-10.11,35.23V824.27h21.54q11.05,0,16,1.74a15.46,15.46,0,0,1,7.9,6.06,16,16,0,0,1,2.92,9.16,16.552,16.552,0,0,1-4.92,11.93q-4.91,5.08-13,5.71a16.547,16.547,0,0,1,5.32,3.32q3.8,3.67,9.27,12.4l7.64,12.24H2191.7l-5.58-9.85q-6.57-11.64-10.62-14.58c-1.84-1.42-4.52-2.13-8.08-2.11h-6v26.54Zm25.57-80.72A49.661,49.661,0,0,0,2153,812.4a45.089,45.089,0,0,0-18.16,18,48.361,48.361,0,0,0-.11,48.45,45.671,45.671,0,0,0,18,18,48.45,48.45,0,0,0,48.31,0,45.47,45.47,0,0,0,18-18,48.62,48.62,0,0,0-.13-48.45,44.741,44.741,0,0,0-18.17-18,49.62,49.62,0,0,0-23.87-6.29Zm0-9.64a59.5,59.5,0,0,1,28.61,7.53,53.38,53.38,0,0,1,21.75,21.51,58.41,58.41,0,0,1,.111,58.13,53.871,53.871,0,0,1-21.51,21.57,58.5,58.5,0,0,1-57.95,0,54.11,54.11,0,0,1-21.56-21.57,58.25,58.25,0,0,1,.1-58.13,53.921,53.921,0,0,1,21.8-21.51,59.571,59.571,0,0,1,28.65-7.53Z"/>
  </g>
</svg>
